<?xml version="1.0" encoding="UTF-8"?>
<svg width="800px" height="600px" viewBox="0 0 800 600" version="1.1" xmlns="http://www.w3.org/2000/svg">
    <defs>
        <linearGradient id="bg-gradient" x1="0%" y1="0%" x2="100%" y2="100%">
            <stop offset="0%" style="stop-color:#EFF6FF;stop-opacity:1" />
            <stop offset="100%" style="stop-color:#DBEAFE;stop-opacity:1" />
        </linearGradient>
    </defs>
    <g stroke="none" stroke-width="1" fill="none" fill-rule="evenodd">
        <!-- Background -->
        <rect fill="url(#bg-gradient)" x="0" y="0" width="800" height="600" rx="20"/>
        
        <!-- Doctor -->
        <g transform="translate(300, 100)">
            <!-- Doctor's coat -->
            <path d="M150,300 C150,200 250,150 250,300" fill="#FFFFFF" stroke="#2563EB" stroke-width="4"/>
            <path d="M150,300 C150,200 50,150 50,300" fill="#FFFFFF" stroke="#2563EB" stroke-width="4"/>
            
            <!-- Doctor's head -->
            <circle cx="150" cy="120" r="60" fill="#FFFFFF" stroke="#2563EB" stroke-width="4"/>
            
            <!-- Doctor's face -->
            <circle cx="130" cy="110" r="5" fill="#2563EB"/> <!-- Left eye -->
            <circle cx="170" cy="110" r="5" fill="#2563EB"/> <!-- Right eye -->
            <path d="M130,140 Q150,160 170,140" stroke="#2563EB" stroke-width="4" fill="none"/> <!-- Smile -->
            
            <!-- Stethoscope -->
            <path d="M100,200 Q120,220 140,200" stroke="#2563EB" stroke-width="4" fill="none"/>
            <circle cx="140" cy="200" r="8" fill="#2563EB"/>
        </g>
        
        <!-- Medical symbols -->
        <g transform="translate(50, 50)">
            <circle cx="25" cy="25" r="20" stroke="#2563EB" stroke-width="4" fill="none"/>
            <path d="M25,10 L25,40 M10,25 L40,25" stroke="#2563EB" stroke-width="4"/>
        </g>
        
        <!-- Decorative elements -->
        <g transform="translate(600, 450)">
            <circle cx="25" cy="25" r="20" stroke="#93C5FD" stroke-width="4" fill="none"/>
            <path d="M25,10 L25,40 M10,25 L40,25" stroke="#93C5FD" stroke-width="4"/>
        </g>

        <!-- Additional medical icons -->
        <g transform="translate(650, 100)">
            <path d="M20,0 L20,40 M0,20 L40,20" stroke="#60A5FA" stroke-width="4" stroke-linecap="round"/>
        </g>
        
        <g transform="translate(100, 450)">
            <path d="M0,20 C0,8.954305 8.954305,0 20,0 C31.045695,0 40,8.954305 40,20 C40,31.045695 31.045695,40 20,40 C8.954305,40 0,31.045695 0,20" stroke="#60A5FA" stroke-width="4" fill="none"/>
        </g>
    </g>
</svg> 