<?xml version="1.0" encoding="UTF-8"?>
<svg width="800" height="600" viewBox="0 0 800 600" fill="none" xmlns="http://www.w3.org/2000/svg">
  <!-- Background -->
  <rect width="800" height="600" fill="#F3F4F6"/>
  
  <!-- Hospital Building -->
  <rect x="100" y="150" width="600" height="400" rx="20" fill="#FFFFFF" stroke="#2563EB" stroke-width="4"/>
  <rect x="350" y="450" width="100" height="100" fill="#2563EB"/>
  <rect x="370" y="470" width="60" height="80" fill="#FFFFFF"/>
  
  <!-- Windows -->
  <rect x="150" y="200" width="80" height="80" rx="5" fill="#E5E7EB"/>
  <rect x="250" y="200" width="80" height="80" rx="5" fill="#E5E7EB"/>
  <rect x="350" y="200" width="80" height="80" rx="5" fill="#E5E7EB"/>
  <rect x="450" y="200" width="80" height="80" rx="5" fill="#E5E7EB"/>
  <rect x="550" y="200" width="80" height="80" rx="5" fill="#E5E7EB"/>
  
  <rect x="150" y="300" width="80" height="80" rx="5" fill="#E5E7EB"/>
  <rect x="250" y="300" width="80" height="80" rx="5" fill="#E5E7EB"/>
  <rect x="350" y="300" width="80" height="80" rx="5" fill="#E5E7EB"/>
  <rect x="450" y="300" width="80" height="80" rx="5" fill="#E5E7EB"/>
  <rect x="550" y="300" width="80" height="80" rx="5" fill="#E5E7EB"/>
  
  <!-- Medical Cross -->
  <rect x="360" y="50" width="80" height="20" fill="#2563EB"/>
  <rect x="390" y="20" width="20" height="80" fill="#2563EB"/>
  
  <!-- Calendar Icon -->
  <rect x="600" y="50" width="100" height="100" rx="10" fill="#FFFFFF" stroke="#2563EB" stroke-width="4"/>
  <rect x="620" y="80" width="60" height="50" rx="5" fill="#2563EB"/>
  <rect x="610" y="30" width="80" height="30" fill="#FFFFFF" stroke="#2563EB" stroke-width="4"/>
</svg> 